<?xml version="1.0" encoding="utf-8"?>
<!-- Generator: Adobe Illustrator 16.0.0, SVG Export Plug-In . SVG Version: 6.00 Build 0)  -->
<!DOCTYPE svg PUBLIC "-//W3C//DTD SVG 1.1//EN" "http://www.w3.org/Graphics/SVG/1.1/DTD/svg11.dtd">
<svg version="1.1" id="Capa_1" xmlns="http://www.w3.org/2000/svg" xmlns:xlink="http://www.w3.org/1999/xlink" x="0px" y="0px"
	 width="620.969px" height="178px" viewBox="0 0 620.969 178" enable-background="new 0 0 620.969 178" xml:space="preserve">
<g>
	<defs>
		<rect id="SVGID_1_" x="-2678.005" y="-491.94" width="1920" height="3294.94"/>
	</defs>
	<clipPath id="SVGID_2_">
		<use xlink:href="#SVGID_1_"  overflow="visible"/>
	</clipPath>
	<g clip-path="url(#SVGID_2_)">
		<defs>
			<rect id="SVGID_367_" x="-2678.005" y="-491.939" width="1920" height="3294.939"/>
		</defs>
		<clipPath id="SVGID_4_">
			<use xlink:href="#SVGID_367_"  overflow="visible"/>
		</clipPath>
	</g>
</g>
<g>
	<path fill="#000E30" d="M607.737,28.888l-12.209,1.244l16.69-21.623L471.62,22.83c-2.579-0.314-5.203-0.335-7.863-0.064
		c-7.309,0.744-13.809,3.341-19.335,7.717c-2.017,1.604-3.88,3.39-5.569,5.354c-1.218-1.042-2.512-1.998-3.873-2.867
		c-4.484-2.86-11.973-6.053-22.155-5.016c-6.955,0.709-13.62,3.403-19.278,7.8c-5.716,4.431-9.977,10.357-12.666,17.607l-1.26-1.931
		c-3.129-4.674-7.107-8.553-11.821-11.52c-4.601-2.896-12.292-6.118-22.849-5.042c-2.793,0.285-5.545,0.853-8.197,1.699
		l-215.301,21.93l-7.113,0.725l-45.465,4.631L50.839,86.24l-6.08,7.559L9.884,137.074l31.916-3.25l-2.888,39.127l189.035-19.254
		l0.764-10.194c4.273,2.405,8.965,4.23,14.009,5.43c6.352,1.513,13.121,1.924,20.121,1.211l161.89-16.49l71.06-7.238l5.903-9.53
		l-31.792,3.238l-51.798,5.276l-0.933,0.094l-54.12,5.513l-50.651,5.159l-49.869,5.08l-0.589,0.06
		c-6.005,0.612-11.777,0.269-17.166-1.016c-5.642-1.343-10.741-3.593-15.144-6.702c-3.249-2.282-6.086-5.001-8.49-8.092
		l-1.498,20.119l-44.525,4.534l-7.4,0.754l-44.596,4.542l0.033-0.406c-2.438,0.512-5.05,0.916-7.88,1.205l-66.725,6.796
		l2.891-39.127l-21.291,2.169l23.26-28.87l2.017-2.514l18.039-22.387l41.773-4.255l14.518-1.479l37.817-3.851l14.045-1.432
		l80.588-8.208l13.228-1.347l63.187-6.436c2.279-0.798,4.691-1.345,7.229-1.604c8.041-0.819,13.802,1.576,17.214,3.717
		c3.658,2.305,6.739,5.321,9.178,8.955l11.033,16.975l5.902-16.83c2.107-5.706,5.407-10.333,9.812-13.749
		c4.341-3.367,9.435-5.442,14.734-5.981c7.648-0.779,13.176,1.568,16.474,3.667c3.929,2.508,7.077,5.969,9.364,10.285l2.355-3.95
		c2.125-3.664,4.827-6.811,8.029-9.348c4.168-3.304,9.115-5.273,14.711-5.843c2.296-0.233,4.556-0.161,6.748,0.181l5.137-0.524
		l6.912-0.704L592.559,19.44l-16.692,21.623l12.227-1.245l-15.947,20.688l17.891-1.823l-33.942,43.729l0.81-0.083l11.4-1.161
		l41.477-53.421l-17.99,1.832L607.737,28.888z"/>
	<path fill="#000E30" d="M128.384,110.068c1.921,0.377,3.572,1.312,4.953,2.794c1.377,1.477,2.199,3.486,2.458,6.021
		c0.217,2.122,0.101,4.239-0.333,6.348c-0.441,2.114-1.473,4.074-3.092,5.885c-1.622,1.813-3.93,3.381-6.93,4.704
		c-3.005,1.326-6.994,2.243-11.964,2.748l-45.649,4.651l2.367-32.168l45.967-4.682c1.347-0.137,2.507-0.554,3.48-1.256
		c0.972-0.697,1.381-1.826,1.223-3.381c-0.104-1.03-0.581-1.703-1.418-2.014c-0.842-0.301-1.782-0.398-2.816-0.293l-45.959,4.681
		l11.975-14.874l34.393-3.502c5.641-0.575,10.159-0.001,13.551,1.715c3.393,1.722,5.293,4.599,5.706,8.645
		c0.188,1.855,0.089,3.545-0.312,5.045c-0.396,1.503-0.978,2.847-1.744,4.025c-0.771,1.178-1.668,2.171-2.682,2.979
		C130.541,108.943,129.481,109.597,128.384,110.068 M85.458,120.716l-0.514,7.27l29.578-3.013c1.977-0.201,3.387-0.708,4.241-1.528
		c0.853-0.819,1.215-1.903,1.077-3.25c-0.199-1.971-1.8-2.798-4.798-2.492L85.458,120.716z"/>
	<polygon fill="#000E30" points="158.488,133.985 142.414,135.622 146.366,82.739 162.359,81.11 	"/>
	<polygon fill="#000E30" points="235.945,73.614 224.436,88.442 205.956,90.324 203.037,129.447 186.964,131.084 189.806,91.969 
		165.425,94.452 176.935,79.625 	"/>
	<path fill="#000E30" d="M264.987,90.351l33.227-3.384l-2.434,33.034l-35.641,3.629c-4.04,0.412-7.783,0.21-11.241-0.616
		c-3.456-0.828-6.468-2.138-9.03-3.942c-2.566-1.804-4.637-4.04-6.216-6.704c-1.577-2.667-2.531-5.625-2.864-8.886
		c-0.432-4.243,0.128-8.25,1.68-12.019c1.549-3.768,3.827-7.097,6.828-9.988c2.998-2.893,6.625-5.278,10.877-7.151
		c4.258-1.872,8.863-3.062,13.835-3.568l37.194-3.788l-11.436,14.819l-26.79,2.728c-2.38,0.243-4.605,0.834-6.68,1.778
		c-2.071,0.941-3.847,2.143-5.321,3.602c-1.474,1.457-2.596,3.112-3.377,4.972c-0.785,1.856-1.06,3.818-0.85,5.892
		c0.333,3.258,1.799,5.728,4.405,7.397c2.601,1.665,5.916,2.295,9.956,1.883l19.72-2.008l0.549-7.666l-26.941,2.744L264.987,90.351z
		"/>
	<path fill="#000E30" d="M326.015,116.921l10.74-14.586l12.972-1.321l4.891-0.498c1.659-0.169,3.11-0.263,4.364-0.287
		c-0.662-0.874-1.429-1.984-2.3-3.333c-0.867-1.35-1.676-2.611-2.429-3.794l-8.308-13.042l-26.926,37.575l-19.021,1.938
		l36.832-51.207c1.192-1.634,2.662-3.146,4.397-4.531c1.75-1.378,3.89-2.197,6.423-2.455c2.433-0.248,4.414,0.112,5.951,1.076
		c1.541,0.968,2.832,2.237,3.881,3.807l28.929,44.509L326.015,116.921z"/>
	<path fill="#000E30" d="M431.089,73.277c1.713,3.428,3.155,6.357,4.346,8.77c1.188,2.418,2.153,4.479,2.906,6.176
		c0.468-0.986,1-1.993,1.569-3.019c0.582-1.029,1.232-2.19,1.964-3.5c0.723-1.298,1.572-2.755,2.533-4.379
		c0.953-1.611,2.087-3.501,3.378-5.675l9.448-15.866c1.021-1.779,2.273-3.25,3.745-4.421c1.479-1.168,3.302-1.865,5.478-2.086
		c2.021-0.206,3.797,0.2,5.341,1.22c1.543,1.022,2.568,2.732,3.072,5.143l9.771,45.125l-15.991,1.628l-3.625-17.906
		c-0.564-2.921-1.03-5.489-1.415-7.699c-0.383-2.211-0.705-4.371-0.977-6.49c-0.473,0.992-0.984,1.999-1.532,3.018
		c-0.548,1.025-1.169,2.163-1.854,3.404c-0.684,1.248-1.434,2.593-2.255,4.036c-0.813,1.441-1.74,3.08-2.752,4.908l-7.914,13.989
		c-0.795,1.386-1.566,2.493-2.284,3.327c-0.731,0.831-1.48,1.503-2.267,1.996c-0.789,0.5-1.59,0.851-2.404,1.067
		c-0.816,0.21-1.717,0.372-2.7,0.472c-0.985,0.1-1.876,0.121-2.701,0.078c-0.807-0.052-1.577-0.242-2.291-0.588
		c-0.718-0.34-1.381-0.869-2.007-1.562c-0.614-0.697-1.223-1.664-1.82-2.909l-5.999-12.65c-0.797-1.696-1.515-3.221-2.151-4.57
		c-0.633-1.345-1.191-2.555-1.664-3.632c-0.473-1.076-0.901-2.066-1.281-2.965c-0.383-0.903-0.744-1.78-1.093-2.635
		c-0.577,1.992-1.268,4.245-2.054,6.754c-0.798,2.514-1.642,5.228-2.546,8.146l-6.23,18.91l-15.763,1.605l16.773-47.828
		c0.946-2.559,2.292-4.51,4.037-5.867c1.74-1.354,3.624-2.133,5.645-2.339c2.067-0.211,3.775,0.11,5.12,0.969
		c1.337,0.86,2.435,2.103,3.277,3.745L431.089,73.277z"/>
	<polygon fill="#000E30" points="550.573,80.557 539.2,95.207 489.207,100.3 493.149,47.42 553.244,41.299 541.808,56.118 
		508.192,59.542 507.733,65.854 548.808,61.671 538.83,74.617 506.842,77.875 506.317,85.064 	"/>
	<polygon fill="#000E30" points="550.595,111.905 547.315,121.657 534.521,122.959 537.22,149.467 526.137,150.596 523.438,124.088 
		506.62,125.801 512.847,115.75 	"/>
	<path fill="#000E30" d="M553.122,111.648l18.537,22.137l14.398-25.491l13.067-1.331l-19.626,34.731
		c-0.68,1.121-1.544,2.143-2.607,3.082c-1.061,0.938-2.442,1.498-4.157,1.673c-1.678,0.17-3.117-0.076-4.319-0.729
		c-1.202-0.655-2.255-1.508-3.161-2.575l-25.741-30.111L553.122,111.648z"/>
</g>
</svg>
